<mxfile host="app.diagrams.net" modified="2024-06-20T04:39:47.608Z" agent="Mozilla/5.0 (Windows NT 10.0; Win64; x64) AppleWebKit/537.36 (KHTML, like Gecko) Chrome/126.0.0.0 Safari/537.36" version="24.5.3" etag="MkOvyZs9mahj7BXPiL-m" type="github">
  <diagram name="Page-1" id="m1k_iygNAgJxLbq-jLE3">
    <mxGraphModel>
      <root>
        <mxCell id="0" />
        <mxCell id="1" parent="0" />
      </root>
    </mxGraphModel>
  </diagram>
</mxfile>
